<svg xmlns="http://www.w3.org/2000/svg" width="942" height="188" viewBox="0 0 942 188"><defs></defs><rect width="942" height="188" fill="white"/><text x="16" y="26" font-family="Arial" font-size="15" fill="#111"></text><text x="16" y="46" font-family="Arial" font-size="12.5" fill="#555"></text><g transform="translate(16,58) scale(0.88)"><path d="M50,20 A30,30 0 1 0 50,80 A21.0,30 0 1 1 50,20 Z" fill="#4A7FB5" stroke="#37618C" stroke-width="2.4"/></g><g transform="translate(120,58) scale(0.88)"><circle cx="50" cy="50" r="34" fill="#8DC63F" stroke="#5E8C1E" stroke-width="2.6"/></g><g transform="translate(224,58) scale(0.88)"><ellipse cx="50" cy="50" rx="23.799999999999997" ry="34" fill="#E8943A" stroke="#B36B1E" stroke-width="2.6"/></g><line x1="334" y1="52" x2="334" y2="170" stroke="#D0D0D0" stroke-width="1.5"/><rect x="351" y="53" width="98" height="98" rx="6" fill="white" stroke="#D9D9D9" stroke-width="1.4"/><g transform="translate(356,58) scale(0.88)"><polygon points="50.00,16.00 79.44,67.00 20.56,67.00" fill="#4A7FB5" stroke="#37618C" stroke-width="2.6"/></g><text x="400.0" y="170" font-family="Arial" font-size="14" fill="#333" text-anchor="middle">A</text><rect x="465" y="53" width="98" height="98" rx="6" fill="white" stroke="#D9D9D9" stroke-width="1.4"/><g transform="translate(470,58) scale(0.88)"><path d="M50,20 A30,30 0 1 0 50,80 A21.0,30 0 1 1 50,20 Z" fill="#8DC63F" stroke="#5E8C1E" stroke-width="2.4"/></g><text x="514.0" y="170" font-family="Arial" font-size="14" fill="#333" text-anchor="middle">B</text><rect x="579" y="53" width="98" height="98" rx="6" fill="white" stroke="#D9D9D9" stroke-width="1.4"/><g transform="translate(584,58) scale(0.88)"><polygon points="50.00,16.00 82.34,39.49 69.98,77.51 30.02,77.51 17.66,39.49" fill="#8064A2" stroke="#5B4576" stroke-width="2.6"/></g><text x="628.0" y="170" font-family="Arial" font-size="14" fill="#333" text-anchor="middle">C</text><rect x="693" y="53" width="98" height="98" rx="6" fill="white" stroke="#D9D9D9" stroke-width="1.4"/><g transform="translate(698,58) scale(0.88)"><polygon points="84.00,50.00 50.00,84.00 16.00,50.00 50.00,16.00" fill="#4A7FB5" stroke="#37618C" stroke-width="2.6"/></g><text x="742.0" y="170" font-family="Arial" font-size="14" fill="#333" text-anchor="middle">D</text><rect x="807" y="53" width="98" height="98" rx="6" fill="white" stroke="#D9D9D9" stroke-width="1.4"/><g transform="translate(812,58) scale(0.88)"><rect x="22.799999999999997" y="22.799999999999997" width="54.400000000000006" height="54.400000000000006" fill="#E8943A" stroke="#B36B1E" stroke-width="2.6"/></g><text x="856.0" y="170" font-family="Arial" font-size="14" fill="#333" text-anchor="middle">E</text></svg>