<svg xmlns="http://www.w3.org/2000/svg" width="734" height="188" viewBox="0 0 734 188"><defs></defs><rect width="734" height="188" fill="white"/><text x="16" y="26" font-family="Arial" font-size="15" fill="#111"></text><text x="16" y="46" font-family="Arial" font-size="12.5" fill="#555"></text><rect x="11" y="53" width="98" height="98" rx="6" fill="white" stroke="#D9D9D9" stroke-width="1.4"/><g transform="translate(16,58) scale(0.88)"><rect x="6" y="6" width="88" height="88" fill="none" stroke="#888" stroke-width="1.5"/><line x1="50" y1="6" x2="50" y2="94" stroke="#888" stroke-width="1.5"/><line x1="6" y1="50" x2="94" y2="50" stroke="#888" stroke-width="1.5"/><polygon points="32.76,14.40 32.76,31.40 37.52,31.40 28.00,41.60 18.48,31.40 23.24,31.40 23.24,14.40" fill="#E8943A" stroke="#B36B1E" stroke-width="2.0"/><polygon points="76.76,14.40 76.76,31.40 81.52,31.40 72.00,41.60 62.48,31.40 67.24,31.40 67.24,14.40" fill="#E8943A" stroke="#B36B1E" stroke-width="2.0"/><polygon points="67.24,41.60 67.24,24.60 62.48,24.60 72.00,14.40 81.52,24.60 76.76,24.60 76.76,41.60" fill="#E8943A" stroke="#B36B1E" stroke-width="2.0"/><polygon points="28.00,85.60 15.07,76.20 20.01,61.00 35.99,61.00 40.93,76.20" fill="#4A7FB5" stroke="#37618C" stroke-width="2.0"/><text x="72" y="81" font-family="Arial" font-size="30" fill="#C0504D" text-anchor="middle">?</text></g><line x1="126" y1="52" x2="126" y2="170" stroke="#D0D0D0" stroke-width="1.5"/><rect x="143" y="53" width="98" height="98" rx="6" fill="white" stroke="#D9D9D9" stroke-width="1.4"/><g transform="translate(148,58) scale(0.88)"><polygon points="50.00,72.10 28.98,56.83 37.01,32.12 62.99,32.12 71.02,56.83" fill="#4A7FB5" stroke="#37618C" stroke-width="2.0"/></g><text x="192.0" y="170" font-family="Arial" font-size="14" fill="#333" text-anchor="middle">A</text><rect x="257" y="53" width="98" height="98" rx="6" fill="white" stroke="#D9D9D9" stroke-width="1.4"/><g transform="translate(262,58) scale(0.88)"><polygon points="34.37,65.63 30.31,39.97 53.46,28.17 71.83,46.54 60.03,69.69" fill="#4A7FB5" stroke="#37618C" stroke-width="2.0"/><polygon points="65.63,34.37 69.69,60.03 46.54,71.83 28.17,53.46 39.97,30.31" fill="#4A7FB5" stroke="#37618C" stroke-width="2.0"/></g><text x="306.0" y="170" font-family="Arial" font-size="14" fill="#333" text-anchor="middle">B</text><rect x="371" y="53" width="98" height="98" rx="6" fill="white" stroke="#D9D9D9" stroke-width="1.4"/><g transform="translate(376,58) scale(0.88)"><polygon points="50.00,72.10 28.98,56.83 37.01,32.12 62.99,32.12 71.02,56.83" fill="#4A7FB5" stroke="#37618C" stroke-width="2.0"/><polygon points="50.00,27.90 71.02,43.17 62.99,67.88 37.01,67.88 28.98,43.17" fill="#4A7FB5" stroke="#37618C" stroke-width="2.0"/></g><text x="420.0" y="170" font-family="Arial" font-size="14" fill="#333" text-anchor="middle">C</text><rect x="485" y="53" width="98" height="98" rx="6" fill="white" stroke="#D9D9D9" stroke-width="1.4"/><g transform="translate(490,58) scale(0.88)"><polygon points="72.10,50.00 56.83,71.02 32.12,62.99 32.12,37.01 56.83,28.98" fill="#4A7FB5" stroke="#37618C" stroke-width="2.0"/><polygon points="27.90,50.00 43.17,28.98 67.88,37.01 67.88,62.99 43.17,71.02" fill="#4A7FB5" stroke="#37618C" stroke-width="2.0"/></g><text x="534.0" y="170" font-family="Arial" font-size="14" fill="#333" text-anchor="middle">D</text><rect x="599" y="53" width="98" height="98" rx="6" fill="white" stroke="#D9D9D9" stroke-width="1.4"/><g transform="translate(604,58) scale(0.88)"><polygon points="72.10,50.00 56.83,71.02 32.12,62.99 32.12,37.01 56.83,28.98" fill="#4A7FB5" stroke="#37618C" stroke-width="2.0"/></g><text x="648.0" y="170" font-family="Arial" font-size="14" fill="#333" text-anchor="middle">E</text></svg>