<svg xmlns="http://www.w3.org/2000/svg" width="942" height="188" viewBox="0 0 942 188"><defs></defs><rect width="942" height="188" fill="white"/><text x="16" y="26" font-family="Arial" font-size="15" fill="#111"></text><text x="16" y="46" font-family="Arial" font-size="12.5" fill="#555"></text><g transform="translate(16,58) scale(0.88)"><polygon points="50.00,10.00 88.04,37.64 73.51,82.36 26.49,82.36 11.96,37.64" fill="none" stroke="#E8943A" stroke-width="2.6"/><rect x="37.2" y="37.2" width="25.6" height="25.6" fill="#E8943A" stroke="#B36B1E" stroke-width="2.6"/></g><g transform="translate(120,58) scale(0.88)"><polygon points="50.00,10.00 84.64,30.00 84.64,70.00 50.00,90.00 15.36,70.00 15.36,30.00" fill="none" stroke="#8064A2" stroke-width="2.6"/><polygon points="50.00,34.00 65.22,45.06 59.40,62.94 40.60,62.94 34.78,45.06" fill="#8064A2" stroke="#5B4576" stroke-width="2.6"/></g><g transform="translate(224,58) scale(0.88)"><rect x="18.0" y="18.0" width="64.0" height="64.0" fill="none" stroke="#C0504D" stroke-width="2.6"/><polygon points="50.00,34.00 63.86,58.00 36.14,58.00" fill="#C0504D" stroke="#8F3B38" stroke-width="2.6"/></g><line x1="334" y1="52" x2="334" y2="170" stroke="#D0D0D0" stroke-width="1.5"/><rect x="351" y="53" width="98" height="98" rx="6" fill="white" stroke="#D9D9D9" stroke-width="1.4"/><g transform="translate(356,58) scale(0.88)"><polygon points="50.00,10.00 84.64,30.00 84.64,70.00 50.00,90.00 15.36,70.00 15.36,30.00" fill="none" stroke="#8DC63F" stroke-width="2.6"/><polygon points="50.00,34.00 65.22,45.06 59.40,62.94 40.60,62.94 34.78,45.06" fill="#8DC63F" stroke="#5E8C1E" stroke-width="2.6"/></g><text x="400.0" y="170" font-family="Arial" font-size="14" fill="#333" text-anchor="middle">A</text><rect x="465" y="53" width="98" height="98" rx="6" fill="white" stroke="#D9D9D9" stroke-width="1.4"/><g transform="translate(470,58) scale(0.88)"><polygon points="50.00,10.00 84.64,30.00 84.64,70.00 50.00,90.00 15.36,70.00 15.36,30.00" fill="none" stroke="#E8943A" stroke-width="2.6"/><polygon points="50.00,34.00 62.51,40.02 65.60,53.56 56.94,64.42 43.06,64.42 34.40,53.56 37.49,40.02" fill="#E8943A" stroke="#B36B1E" stroke-width="2.6"/></g><text x="514.0" y="170" font-family="Arial" font-size="14" fill="#333" text-anchor="middle">B</text><rect x="579" y="53" width="98" height="98" rx="6" fill="white" stroke="#D9D9D9" stroke-width="1.4"/><g transform="translate(584,58) scale(0.88)"><polygon points="50.00,10.00 84.64,30.00 84.64,70.00 50.00,90.00 15.36,70.00 15.36,30.00" fill="none" stroke="#4A7FB5" stroke-width="2.6"/><rect x="37.2" y="37.2" width="25.6" height="25.6" fill="#4A7FB5" stroke="#37618C" stroke-width="2.6"/></g><text x="628.0" y="170" font-family="Arial" font-size="14" fill="#333" text-anchor="middle">C</text><rect x="693" y="53" width="98" height="98" rx="6" fill="white" stroke="#D9D9D9" stroke-width="1.4"/><g transform="translate(698,58) scale(0.88)"><polygon points="50.00,10.00 84.64,30.00 84.64,70.00 50.00,90.00 15.36,70.00 15.36,30.00" fill="none" stroke="#4A7FB5" stroke-width="2.6"/><polygon points="50.00,34.00 63.86,42.00 63.86,58.00 50.00,66.00 36.14,58.00 36.14,42.00" fill="#4A7FB5" stroke="#37618C" stroke-width="2.6"/></g><text x="742.0" y="170" font-family="Arial" font-size="14" fill="#333" text-anchor="middle">D</text><rect x="807" y="53" width="98" height="98" rx="6" fill="white" stroke="#D9D9D9" stroke-width="1.4"/><g transform="translate(812,58) scale(0.88)"><polygon points="50.00,10.00 84.64,30.00 84.64,70.00 50.00,90.00 15.36,70.00 15.36,30.00" fill="none" stroke="#E8943A" stroke-width="2.6"/><polygon points="50.00,34.00 61.31,38.69 66.00,50.00 61.31,61.31 50.00,66.00 38.69,61.31 34.00,50.00 38.69,38.69" fill="#E8943A" stroke="#B36B1E" stroke-width="2.6"/></g><text x="856.0" y="170" font-family="Arial" font-size="14" fill="#333" text-anchor="middle">E</text></svg>